<svg width="750" height="500" viewBox="0 0 750 500" fill="none" xmlns="http://www.w3.org/2000/svg">
<path d="M704.185 191.603C696.305 163.225 643.772 194.091 643.772 194.091L657.519 169.155C659.152 166.683 660.618 164.063 661.873 161.256C668.777 145.817 668.686 129.302 661.837 114.919C659.954 106.187 654.251 93.707 638.518 80.03C608.75 54.152 508.938 36.451 480.045 40.381C451.152 44.312 506.311 56.467 506.311 56.467L501.939 56.429C417.786 47.507 333.115 46.359 249.106 48.098C228.04 48.534 206.91 49.225 186.284 52.784C180.349 53.808 173.967 55.372 170.434 60.159C154.751 81.425 218.903 83.503 228.966 83.093C184.903 88.82 135.943 90.576 94.9639 107.605C89.2459 109.981 83.5819 112.797 79.2739 117.193C74.9659 121.589 72.1589 127.826 73.1299 134.094C75.9489 152.291 101.02 157.685 115.236 161.726C115.236 161.726 33.5159 216.065 43.1469 243.648C47.1279 255.05 53.0619 267.053 64.0589 278.869C57.7909 286.738 52.2719 294.995 48.0059 303.725C45.3959 309.065 41.9769 316.381 44.8979 322.528C59.7819 353.853 285.511 461.384 466.393 430.693C514.444 422.54 562.3 409.058 604.424 385.214C646.343 361.485 689.06 322.29 699.62 272.866C699.968 271.237 700.223 269.658 700.397 268.122C706.95 245.345 710.777 215.344 704.185 191.603Z" fill="#DFE8FF"/>
<path opacity="0.8" d="M704.185 191.603C696.305 163.225 643.772 194.091 643.772 194.091L657.519 169.155C659.152 166.683 660.618 164.063 661.873 161.256C668.777 145.817 668.686 129.302 661.837 114.919C659.954 106.187 654.251 93.707 638.518 80.03C608.75 54.152 508.938 36.451 480.045 40.381C451.152 44.312 506.311 56.467 506.311 56.467L501.939 56.429C417.786 47.507 333.115 46.359 249.106 48.098C228.04 48.534 206.91 49.225 186.284 52.784C180.349 53.808 173.967 55.372 170.434 60.159C154.751 81.425 218.903 83.503 228.966 83.093C184.903 88.82 135.943 90.576 94.9639 107.605C89.2459 109.981 83.5819 112.797 79.2739 117.193C74.9659 121.589 73.2799 127.753 73.1299 134.094C72.7329 150.87 99.6939 157.099 115.236 161.726C115.236 161.726 33.5159 216.065 43.1469 243.648C47.1279 255.05 53.0619 267.053 64.0589 278.869C57.7909 286.738 52.2719 294.995 48.0059 303.725C45.3959 309.065 41.9769 316.381 44.8979 322.528C59.7819 353.853 285.511 461.384 466.393 430.693C514.444 422.54 562.3 409.058 604.424 385.214C646.343 361.485 689.06 322.29 699.62 272.866C699.968 271.237 700.223 269.658 700.397 268.122C706.95 245.345 710.777 215.344 704.185 191.603Z" fill="white"/>
<path d="M557.959 160.595C557.959 160.595 558.979 157.534 564.081 156.513C569.183 155.493 575.306 161.105 575.306 161.105C575.306 161.105 579.388 152.942 583.469 152.431C587.551 151.921 592.143 155.492 592.143 155.492" stroke="#34344A" stroke-miterlimit="10"/>
<path d="M544.694 179.983C544.694 179.983 545.714 176.922 550.816 175.901C555.918 174.881 562.041 180.493 562.041 180.493C562.041 180.493 566.123 172.33 570.204 171.819C574.286 171.309 578.878 174.88 578.878 174.88" stroke="#34344A" stroke-miterlimit="10"/>
<path d="M593.164 180.105C593.164 180.105 593.941 177.775 597.824 176.998C601.708 176.221 606.368 180.493 606.368 180.493C606.368 180.493 609.475 174.279 612.582 173.891C615.689 173.503 619.184 176.221 619.184 176.221" stroke="#34344A" stroke-miterlimit="10"/>
<path d="M649.858 200.647C649.858 200.647 650.367 199.119 652.914 198.609C655.461 198.1 658.517 200.901 658.517 200.901C658.517 200.901 660.555 196.826 662.592 196.571C664.629 196.316 666.922 198.099 666.922 198.099" stroke="#34344A" stroke-miterlimit="10"/>
<path d="M378.139 155.188C372.867 131.501 345.564 113.847 321.765 117.23C315.834 118.073 310.063 120.292 305.607 124.392C299.53 129.983 300.972 136.33 297.963 143.258C297.128 145.181 295.5 146.889 293.43 147.244C287.511 148.259 282.743 142.359 276.75 142.315C272.269 142.282 266.541 144.758 264.041 148.627C261.714 152.23 263.336 158.518 259.147 160.91C254.462 163.585 248.765 158.496 243.701 160.338C237.408 162.626 240.269 167.203 237.98 170.063C235.692 172.923 231.115 171.779 224.822 171.207C218.529 170.635 213.381 178.072 213.381 178.072H411.892C411.892 178.072 413.608 175.212 406.171 163.77C398.734 152.328 388.437 160.338 383.86 160.338C379.287 160.337 378.141 155.197 378.139 155.188Z" stroke="#34344A" stroke-miterlimit="10"/>
<path d="M433.423 117.144C431.308 107.641 420.354 100.559 410.806 101.916C408.426 102.254 406.111 103.145 404.323 104.789C401.885 107.032 402.463 109.578 401.256 112.358C400.921 113.129 400.268 113.814 399.437 113.957C397.063 114.364 395.149 111.997 392.745 111.98C390.947 111.967 388.649 112.96 387.646 114.512C386.712 115.957 387.363 118.48 385.683 119.44C383.804 120.513 381.518 118.472 379.486 119.21C376.961 120.128 378.109 121.964 377.191 123.112C376.273 124.26 374.437 123.801 371.912 123.571C369.387 123.342 367.322 126.325 367.322 126.325H446.962C446.962 126.325 447.65 125.177 444.667 120.587C441.683 115.997 437.552 119.21 435.716 119.21C433.884 119.21 433.424 117.148 433.423 117.144Z" stroke="#34344A" stroke-miterlimit="10"/>
<path d="M603.325 233.601C601.21 224.098 590.256 217.016 580.708 218.373C578.328 218.711 576.013 219.602 574.225 221.247C571.787 223.49 572.365 226.036 571.158 228.816C570.823 229.587 570.17 230.272 569.34 230.415C566.966 230.822 565.052 228.455 562.648 228.437C560.85 228.424 558.552 229.417 557.549 230.969C556.615 232.414 557.266 234.937 555.586 235.897C553.707 236.97 551.421 234.929 549.389 235.667C546.864 236.585 548.012 238.421 547.094 239.569C546.176 240.717 544.34 240.258 541.815 240.028C539.29 239.798 537.225 242.782 537.225 242.782H616.865C616.865 242.782 617.554 241.634 614.57 237.044C611.586 232.454 607.455 235.667 605.619 235.667C603.786 235.667 603.326 233.605 603.325 233.601Z" stroke="#34344A" stroke-miterlimit="10"/>
<path d="M475.579 223.202C472.339 208.647 455.562 197.799 440.938 199.877C437.293 200.395 433.747 201.759 431.009 204.278C427.275 207.714 428.161 211.614 426.312 215.871C425.799 217.053 424.798 218.102 423.527 218.321C419.89 218.945 416.96 215.319 413.277 215.292C410.523 215.272 407.003 216.793 405.467 219.171C404.037 221.385 405.034 225.249 402.46 226.719C399.581 228.363 396.081 225.236 392.969 226.367C389.102 227.773 390.86 230.585 389.454 232.343C388.048 234.101 385.236 233.398 381.369 233.046C377.502 232.694 374.338 237.264 374.338 237.264H496.321C496.321 237.264 497.376 235.506 492.806 228.476C488.236 221.445 481.908 226.367 479.096 226.367C476.284 226.367 475.58 223.208 475.579 223.202Z" stroke="#34344A" stroke-miterlimit="10"/>
<path d="M504.269 390.9C504.269 390.9 496.978 383.345 499.024 383.573C501.07 383.8 504.9 389.449 504.9 389.449C504.9 389.449 504.953 376.995 506.772 379.724C508.591 382.453 506.356 389.501 506.356 389.501C506.356 389.501 511.556 381.388 511.545 382.714C511.509 386.813 507.538 390.02 507.538 390.02C507.538 390.02 515.865 383.851 514.501 386.353C513.137 388.854 507.812 391.218 507.812 391.218C507.812 391.218 517.411 389.282 514.001 390.646C510.59 392.01 507.344 392.947 507.344 392.947H504.692C504.692 392.947 495.627 388.399 499.038 389.081C502.45 389.763 504.269 390.9 504.269 390.9Z" fill="#34344A"/>
<path d="M600.558 367.261C600.558 367.261 594.884 361.382 596.476 361.559C598.069 361.736 601.049 366.132 601.049 366.132C601.049 366.132 601.09 356.44 602.506 358.564C603.922 360.688 602.182 366.173 602.182 366.173C602.182 366.173 606.229 359.859 606.22 360.891C606.192 364.081 603.102 366.576 603.102 366.576C603.102 366.576 609.583 361.775 608.521 363.722C607.459 365.669 603.315 367.508 603.315 367.508C603.315 367.508 610.786 366.001 608.131 367.063C605.477 368.125 602.951 368.854 602.951 368.854H600.887C600.887 368.854 593.833 365.315 596.487 365.846C599.142 366.376 600.558 367.261 600.558 367.261Z" fill="#34344A"/>
<path d="M689.953 346.171C689.953 346.171 684.279 340.292 685.871 340.469C687.464 340.646 690.444 345.042 690.444 345.042C690.444 345.042 690.485 335.35 691.901 337.474C693.317 339.598 691.577 345.083 691.577 345.083C691.577 345.083 695.624 338.769 695.615 339.801C695.587 342.991 692.497 345.486 692.497 345.486C692.497 345.486 698.977 340.685 697.916 342.632C696.854 344.579 692.711 346.418 692.711 346.418C692.711 346.418 700.182 344.911 697.527 345.973C694.873 347.035 692.347 347.764 692.347 347.764H690.283C690.283 347.764 683.228 344.225 685.883 344.756C688.538 345.286 689.953 346.171 689.953 346.171Z" fill="#34344A"/>
<path d="M576.022 394.342C576.022 394.342 569.244 387.319 571.146 387.53C573.049 387.741 576.609 392.993 576.609 392.993C576.609 392.993 576.658 381.416 578.349 383.953C580.04 386.49 577.962 393.042 577.962 393.042C577.962 393.042 582.797 385.5 582.786 386.732C582.753 390.543 579.061 393.523 579.061 393.523C579.061 393.523 586.802 387.789 585.534 390.114C584.266 392.439 579.316 394.637 579.316 394.637C579.316 394.637 588.24 392.837 585.069 394.105C581.898 395.373 578.881 396.244 578.881 396.244H576.415C576.415 396.244 567.988 392.016 571.159 392.65C574.331 393.285 576.022 394.342 576.022 394.342Z" fill="#DFE8FF"/>
<path d="M441.893 363.875L381.926 296.644L368.793 307.151L303.051 208.17L245.819 220.922L228.705 188.952L212.07 188.076L180.55 125.913L133.404 168.929L110.673 160.811L27.8662 245.242" stroke="#34344A" stroke-miterlimit="10"/>
<path d="M453.138 376.482L446.851 369.433" stroke="#34344A" stroke-miterlimit="10"/>
<path d="M215.088 229.142L210.131 230.484" stroke="#34344A" stroke-miterlimit="10"/>
<path d="M245.702 220.85L220.669 227.63" stroke="#34344A" stroke-miterlimit="10"/>
<path d="M151.263 192.074L165.28 171.382L164.333 164.284L180.423 131.632" stroke="#34344A" stroke-miterlimit="10"/>
<path d="M145.405 200.721L148.921 195.53" stroke="#34344A" stroke-miterlimit="10"/>
<path d="M123.654 212.962L100.923 243.784" stroke="#34344A" stroke-miterlimit="10"/>
<path d="M111.806 164.284L117.485 177.061L130.262 187.471L128.842 205.927L125.746 210.125" stroke="#34344A" stroke-miterlimit="10"/>
<path d="M228.705 188.952L216.86 200.248L212.601 193.15" stroke="#34344A" stroke-miterlimit="10"/>
<path d="M707.008 315.436L614.992 250.532L587.058 289.967L552.552 278.465L499.15 353.229L464.643 345.835L447.39 360.623" stroke="#34344A" stroke-miterlimit="10"/>
<path d="M614.992 250.532L604.052 298.624L591.15 292.979" stroke="#34344A" stroke-miterlimit="10"/>
<path d="M552.847 281.287L525.834 359.908L507.287 356.683" stroke="#34344A" stroke-miterlimit="10"/>
<path d="M551.599 275.67C527.653 275.67 508.242 294.95 508.242 318.732C508.242 329.758 512.417 339.815 519.279 347.433C522.419 346.978 528.141 346.665 534.466 348.817C542.847 351.668 548.07 356.34 549.214 357.431H553.099C554.243 356.34 559.466 351.668 567.847 348.817C574.733 346.474 580.908 347.053 583.809 347.556C590.737 339.924 594.956 329.818 594.956 318.732C594.956 294.949 575.545 275.67 551.599 275.67Z" fill="#DFE8FF"/>
<path d="M571.782 336.004C570.448 336.649 569.126 337.316 567.821 338.012C566.515 338.726 565.234 339.501 564.033 340.35C563.579 340.664 563.136 340.988 562.693 341.312L569.795 328.081L560.05 343.342C559.063 344.136 558.092 344.947 557.141 345.774C555.567 347.144 554.037 348.54 552.537 349.979L552.042 335.625L562.238 320.1L551.967 333.453L551.524 320.606L550.791 334.981L550.789 334.984L550.791 334.985L550.057 349.393C548.755 348.161 547.43 346.956 546.071 345.774C545.002 344.845 543.914 343.933 542.799 343.047L533.579 327.301L540.351 341.191C539.962 340.908 539.575 340.623 539.179 340.349C537.978 339.501 536.698 338.725 535.391 338.011C534.086 337.315 532.764 336.648 531.43 336.003C528.758 334.721 526.037 333.522 523.226 332.532C525.957 333.689 528.575 335.045 531.132 336.476C532.408 337.196 533.67 337.936 534.911 338.703C536.132 339.476 537.307 340.293 538.423 341.195C540.669 342.973 542.768 344.915 544.788 346.919C546.553 348.672 548.27 350.484 549.907 352.324L548.975 370.611H553.247L552.642 353.067C554.472 350.972 556.42 348.907 558.423 346.919C560.443 344.915 562.541 342.974 564.788 341.195C565.904 340.293 567.078 339.475 568.3 338.703C569.541 337.936 570.802 337.196 572.079 336.476C574.636 335.045 577.254 333.689 579.985 332.532C577.175 333.523 574.453 334.723 571.782 336.004Z" fill="#34344A"/>
<path d="M218.708 334.758C218.708 347.131 211.77 348.065 203.211 348.065C194.652 348.065 187.714 347.131 187.714 334.758C187.714 322.385 194.652 296.522 203.211 296.522C211.77 296.521 218.708 322.385 218.708 334.758Z" fill="#DFE8FF"/>
<path d="M208.451 340.371L205.887 340.548L212.564 336.047L207.796 338.457L208.451 336.574L206.271 339.228L203.714 340.521L203.511 331.636L204.865 328.348L203.478 330.197L203.36 325.045L207.607 319.383L203.331 323.761L203.072 312.422L202.843 319.679L200.119 316.641L202.799 321.074L202.436 332.569L200.065 331.018L197.904 327.188L198.77 330.172L194.529 327.399L202.386 334.175L201.196 371.906H204.431L203.747 341.991L204.495 341.487L208.451 340.371Z" fill="#34344A"/>
<path d="M635.517 292.148C635.517 316.324 621.96 318.15 605.237 318.15C588.513 318.15 574.956 316.325 574.956 292.148C574.956 267.971 588.513 217.434 605.237 217.434C621.96 217.434 635.517 267.972 635.517 292.148Z" fill="#DFE8FF"/>
<path opacity="0.31" d="M635.517 292.148C635.517 316.324 621.96 318.15 605.237 318.15C588.513 318.15 574.956 316.325 574.956 292.148C574.956 267.971 588.513 217.434 605.237 217.434C621.96 217.434 635.517 267.972 635.517 292.148Z" fill="white"/>
<path d="M615.475 303.117L610.466 303.462L623.512 294.668L614.195 299.377L615.475 295.698L611.215 300.884L606.219 303.409L605.822 286.048L608.468 279.623L605.758 283.236L605.528 273.17L613.826 262.106L605.471 270.66L604.964 248.504L604.517 262.685L599.194 256.748L604.431 265.409L603.723 287.871L599.088 284.841L594.866 277.356L596.559 283.188L588.271 277.768L603.624 291.01L601.299 364.737H607.62L606.285 306.282L607.745 305.297L615.475 303.117Z" fill="#34344A"/>
<path d="M700.336 301.663C700.336 314.036 693.398 314.97 684.839 314.97C676.28 314.97 669.342 314.036 669.342 301.663C669.342 289.29 676.28 263.427 684.839 263.427C693.398 263.427 700.336 289.29 700.336 301.663Z" fill="#DFE8FF"/>
<path opacity="0.5" d="M700.336 301.663C700.336 314.036 693.398 314.97 684.839 314.97C676.28 314.97 669.342 314.036 669.342 301.663C669.342 289.29 676.28 263.427 684.839 263.427C693.398 263.427 700.336 289.29 700.336 301.663Z" fill="white"/>
<path d="M690.079 307.277L687.516 307.454L694.192 302.953L689.424 305.363L690.079 303.48L687.899 306.134L685.342 307.426L685.139 298.542L686.493 295.254L685.106 297.103L684.988 291.951L689.235 286.289L684.959 290.667L684.7 279.328L684.471 286.585L681.747 283.546L684.427 287.979L684.065 299.475L681.693 297.924L679.532 294.093L680.398 297.078L676.157 294.304L684.014 301.081L682.824 338.812H686.059L685.375 308.897L686.123 308.393L690.079 307.277Z" fill="#34344A"/>
<path d="M68.6659 291.201C68.6659 303.574 61.7279 304.508 53.1689 304.508C44.6099 304.508 37.6719 303.574 37.6719 291.201C37.6719 278.828 44.6099 252.965 53.1689 252.965C61.7279 252.965 68.6659 278.828 68.6659 291.201Z" fill="#DFE8FF"/>
<path opacity="0.5" d="M68.6659 291.201C68.6659 303.574 61.7279 304.508 53.1689 304.508C44.6099 304.508 37.6719 303.574 37.6719 291.201C37.6719 278.828 44.6099 252.965 53.1689 252.965C61.7279 252.965 68.6659 278.828 68.6659 291.201Z" fill="white"/>
<path d="M58.4088 296.815L55.8458 296.991L62.5218 292.491L57.7538 294.901L58.4088 293.018L56.2288 295.672L53.6718 296.964L53.4688 288.079L54.8228 284.791L53.4358 286.64L53.3178 281.489L57.5648 275.826L53.2888 280.204L53.0298 268.865L52.8008 276.123L50.0768 273.084L52.7568 277.517L52.3948 289.012L50.0228 287.462L47.8618 283.631L48.7278 286.615L44.4868 283.842L52.3438 290.619L51.1538 328.35H54.3888L53.7058 298.434L54.4528 297.931L58.4088 296.815Z" fill="#34344A"/>
<path d="M145.46 263.142C121.515 263.142 102.103 282.422 102.103 306.204C102.103 317.23 106.278 327.287 113.14 334.905C116.28 334.45 122.002 334.137 128.327 336.289C136.708 339.14 141.931 343.812 143.075 344.903H146.96C148.104 343.812 153.327 339.14 161.708 336.289C168.594 333.947 174.769 334.525 177.67 335.028C184.598 327.396 188.817 317.29 188.817 306.204C188.817 282.422 169.405 263.142 145.46 263.142Z" fill="#DFE8FF"/>
<path opacity="0.33" d="M145.46 263.142C121.515 263.142 102.103 282.422 102.103 306.204C102.103 317.23 106.278 327.287 113.14 334.905C116.28 334.45 122.002 334.137 128.327 336.289C136.708 339.14 141.931 343.812 143.075 344.903H146.96C148.104 343.812 153.327 339.14 161.708 336.289C168.594 333.947 174.769 334.525 177.67 335.028C184.598 327.396 188.817 317.29 188.817 306.204C188.817 282.422 169.405 263.142 145.46 263.142Z" fill="white"/>
<path d="M165.642 323.477C164.308 324.122 162.986 324.789 161.681 325.485C160.375 326.199 159.094 326.974 157.893 327.823C157.439 328.137 156.996 328.461 156.553 328.785L163.655 315.554L153.91 330.815C152.923 331.609 151.953 332.42 151.001 333.247C149.427 334.617 147.897 336.013 146.397 337.452L145.902 323.098L156.098 307.573L145.827 320.926L145.384 308.079L144.652 322.454L144.65 322.457L144.652 322.458L143.918 336.866C142.616 335.634 141.291 334.429 139.932 333.247C138.863 332.318 137.775 331.406 136.66 330.52L127.44 314.774L134.212 328.664C133.823 328.381 133.437 328.096 133.039 327.822C131.838 326.974 130.558 326.198 129.251 325.484C127.946 324.788 126.624 324.121 125.291 323.476C122.62 322.194 119.898 320.995 117.087 320.005C119.818 321.162 122.436 322.517 124.993 323.949C126.269 324.669 127.531 325.409 128.772 326.176C129.993 326.949 131.168 327.766 132.284 328.668C134.53 330.446 136.629 332.388 138.649 334.392C140.414 336.145 142.132 337.958 143.768 339.797L142.836 358.084H147.108L146.503 340.54C148.333 338.445 150.281 336.381 152.284 334.392C154.304 332.388 156.402 330.447 158.649 328.668C159.765 327.766 160.939 326.949 162.161 326.176C163.402 325.409 164.663 324.669 165.94 323.949C168.498 322.518 171.115 321.162 173.846 320.005C171.035 320.996 168.313 322.195 165.642 323.477Z" fill="#34344A"/>
<path d="M265.837 391.648V351.972H214.195V326.57L258.49 221.606H296.277V327.2H312.651V351.972H296.277V391.648H265.837ZM239.806 327.2H265.837V254.985L239.806 327.2Z" fill="#34344A"/>
<path d="M373.53 391.739C363.313 391.739 354.846 389.64 348.129 385.441C341.411 381.242 336.373 375.469 333.014 368.121C329.655 360.774 327.976 352.272 327.976 342.615V266.412C327.976 256.476 329.583 247.764 332.804 240.276C336.022 232.791 340.991 226.946 347.709 222.747C354.427 218.548 363.033 216.449 373.53 216.449C383.886 216.449 392.388 218.548 399.036 222.747C405.682 226.946 410.615 232.791 413.836 240.276C417.054 247.764 418.664 256.477 418.664 266.412V342.615C418.664 352.272 416.985 360.774 413.626 368.121C410.267 375.469 405.228 381.242 398.511 385.441C391.793 389.64 383.465 391.739 373.53 391.739ZM373.53 363.189C377.309 363.189 380.038 362.001 381.717 359.619C383.396 357.241 384.515 354.407 385.076 351.117C385.634 347.83 385.916 344.786 385.916 341.985V267.041C385.916 263.964 385.67 260.743 385.181 257.384C384.689 254.025 383.607 251.122 381.927 248.672C380.248 246.226 377.447 244.998 373.53 244.998C369.61 244.998 366.776 246.225 365.028 248.672C363.277 251.122 362.158 254.025 361.669 257.384C361.177 260.743 360.934 263.964 360.934 267.041V341.985C360.934 344.786 361.213 347.83 361.774 351.117C362.332 354.407 363.522 357.241 365.343 359.619C367.16 362.001 369.889 363.189 373.53 363.189Z" fill="#34344A"/>
<path d="M487.939 391.648V351.972H436.297V326.57L480.592 221.606H518.378V327.2H534.752V351.972H518.378V391.648H487.939ZM461.908 327.2H487.939V254.985L461.908 327.2Z" fill="#34344A"/>
<path d="M720.109 309.639C654.732 352.497 525.614 381.667 377.011 381.667C223.849 381.667 91.3822 350.681 28.0732 305.658V478.002H720.109V309.639Z" fill="white"/>
<path d="M705.907 318.188C637.087 356.33 515.51 381.667 377.011 381.667C223.849 381.667 91.3822 350.681 28.0732 305.658" stroke="#34344A" stroke-miterlimit="10"/>
<path d="M720.412 309.444C717.465 311.383 714.388 313.295 711.185 315.177" stroke="#34344A" stroke-miterlimit="10"/>
<path d="M678.37 299.652C678.37 324.932 664.194 326.841 646.706 326.841C629.218 326.841 615.042 324.932 615.042 299.652C615.042 274.371 629.218 221.526 646.706 221.526C664.194 221.526 678.37 274.372 678.37 299.652Z" fill="#DFE8FF"/>
<path d="M657.412 311.123L652.175 311.484L665.817 302.287L656.074 307.212L657.412 303.365L652.958 308.787L647.734 311.428L647.319 293.274L650.085 286.556L647.252 290.334L647.011 279.808L655.688 268.238L646.951 277.183L646.422 254.015L645.954 268.844L640.388 262.635L645.864 271.693L645.123 295.181L640.277 292.012L635.862 284.185L637.633 290.283L628.966 284.616L645.02 298.462L642.589 375.557H649.199L647.802 314.432L649.329 313.402L657.412 311.123Z" fill="#34344A"/>
<path d="M644.573 376.237C644.573 376.237 632.886 364.128 636.167 364.493C639.447 364.858 645.586 373.912 645.586 373.912C645.586 373.912 645.671 353.951 648.587 358.325C651.503 362.699 647.92 373.996 647.92 373.996C647.92 373.996 656.255 360.993 656.237 363.117C656.179 369.687 649.815 374.826 649.815 374.826C649.815 374.826 663.162 364.939 660.975 368.948C658.788 372.957 650.254 376.746 650.254 376.746C650.254 376.746 665.64 373.642 660.173 375.829C654.706 378.016 649.504 379.517 649.504 379.517H645.253C645.253 379.517 630.724 372.228 636.191 373.321C641.657 374.415 644.573 376.237 644.573 376.237Z" fill="#34344A"/>
<path d="M84.7252 361.203C84.7252 361.203 74.6172 350.73 77.4542 351.045C80.2912 351.36 85.6012 359.192 85.6012 359.192C85.6012 359.192 85.6742 341.927 88.1962 345.71C90.7182 349.493 87.6192 359.264 87.6192 359.264C87.6192 359.264 94.8282 348.017 94.8122 349.854C94.7622 355.537 89.2572 359.982 89.2572 359.982C89.2572 359.982 100.801 351.43 98.9102 354.898C97.0192 358.366 89.6372 361.643 89.6372 361.643C89.6372 361.643 102.945 358.958 98.2162 360.85C93.4872 362.741 88.9882 364.04 88.9882 364.04H85.3112C85.3112 364.04 72.7442 357.735 77.4732 358.681C82.2032 359.627 84.7252 361.203 84.7252 361.203Z" fill="#34344A"/>
<path d="M121.261 285.871C121.261 311.179 107.069 313.09 89.5632 313.09C72.0572 313.09 57.8652 311.179 57.8652 285.871C57.8652 260.563 72.0572 207.66 89.5632 207.66C107.069 207.66 121.261 260.563 121.261 285.871Z" fill="#DFE8FF"/>
<path d="M100.281 297.354L95.0382 297.715L108.694 288.509L98.9412 293.439L100.281 289.587L95.8222 295.016L90.5912 297.66L90.1762 279.486L92.9462 272.76L90.1092 276.542L89.8682 266.005L98.5552 254.423L89.8082 263.378L89.2782 240.184L88.8102 255.029L83.2382 248.814L88.7202 257.881L87.9792 281.395L83.1272 278.222L78.7072 270.387L80.4792 276.491L71.8042 270.819L87.8752 284.68L85.4412 361.858H92.0592L90.6602 300.667L92.1892 299.636L100.281 297.354Z" fill="#34344A"/>
<path d="M195.389 387.514C195.389 387.514 185.281 377.041 188.118 377.356C190.955 377.671 196.265 385.503 196.265 385.503C196.265 385.503 196.339 368.238 198.86 372.021C201.382 375.804 198.283 385.575 198.283 385.575C198.283 385.575 205.492 374.328 205.476 376.165C205.426 381.848 199.921 386.293 199.921 386.293C199.921 386.293 211.465 377.741 209.574 381.209C207.683 384.677 200.301 387.954 200.301 387.954C200.301 387.954 213.609 385.27 208.88 387.161C204.151 389.052 199.652 390.351 199.652 390.351H195.975C195.975 390.351 183.409 384.046 188.137 384.992C192.867 385.937 195.389 387.514 195.389 387.514Z" fill="#34344A"/>
<path d="M249.04 410.464C249.04 410.464 238.932 399.991 241.769 400.306C244.606 400.621 249.916 408.453 249.916 408.453C249.916 408.453 249.989 391.188 252.511 394.971C255.033 398.754 251.934 408.525 251.934 408.525C251.934 408.525 259.144 397.278 259.127 399.115C259.077 404.798 253.572 409.243 253.572 409.243C253.572 409.243 265.116 400.691 263.225 404.159C261.334 407.627 253.952 410.904 253.952 410.904C253.952 410.904 267.26 408.22 262.531 410.111C257.802 412.003 253.303 413.301 253.303 413.301H249.626C249.626 413.301 237.059 406.996 241.788 407.942C246.518 408.888 249.04 410.464 249.04 410.464Z" fill="#34344A"/>
<path d="M392.943 395.054C392.943 395.054 385.652 387.5 387.698 387.727C389.744 387.954 393.574 393.603 393.574 393.603C393.574 393.603 393.627 381.15 395.446 383.878C397.265 386.607 395.03 393.655 395.03 393.655C395.03 393.655 400.231 385.542 400.219 386.868C400.183 390.967 396.212 394.174 396.212 394.174C396.212 394.174 404.539 388.006 403.175 390.507C401.811 393.008 396.486 395.372 396.486 395.372C396.486 395.372 406.085 393.436 402.674 394.8C399.263 396.164 396.018 397.101 396.018 397.101H393.366C393.366 397.101 384.301 392.553 387.712 393.235C391.124 393.917 392.943 395.054 392.943 395.054Z" fill="#34344A"/>
<path d="M675.97 376.978C675.97 376.978 670.296 371.099 671.888 371.276C673.48 371.453 676.461 375.849 676.461 375.849C676.461 375.849 676.502 366.157 677.918 368.281C679.334 370.405 677.594 375.89 677.594 375.89C677.594 375.89 681.641 369.576 681.632 370.608C681.604 373.798 678.514 376.293 678.514 376.293C678.514 376.293 684.995 371.493 683.933 373.439C682.871 375.386 678.727 377.225 678.727 377.225C678.727 377.225 686.198 375.718 683.543 376.78C680.889 377.842 678.363 378.571 678.363 378.571H676.299C676.299 378.571 669.245 375.032 671.899 375.563C674.554 376.093 675.97 376.978 675.97 376.978Z" fill="#34344A"/>
<path d="M293.902 395.094C293.902 395.094 283.794 384.621 286.631 384.936C289.468 385.251 294.778 393.083 294.778 393.083C294.778 393.083 294.851 375.818 297.373 379.601C299.895 383.384 296.796 393.155 296.796 393.155C296.796 393.155 304.006 381.908 303.989 383.745C303.939 389.428 298.434 393.873 298.434 393.873C298.434 393.873 309.978 385.321 308.087 388.789C306.196 392.257 298.814 395.534 298.814 395.534C298.814 395.534 312.122 392.849 307.393 394.741C302.664 396.632 298.165 397.931 298.165 397.931H294.488C294.488 397.931 281.922 391.626 286.65 392.572C291.381 393.518 293.902 395.094 293.902 395.094Z" fill="#DFE8FF"/>
<path d="M220.961 388.136C220.961 388.136 214.183 381.113 216.085 381.324C217.987 381.535 221.548 386.787 221.548 386.787C221.548 386.787 221.597 375.21 223.288 377.747C224.979 380.284 222.901 386.836 222.901 386.836C222.901 386.836 227.735 379.294 227.725 380.526C227.692 384.337 224 387.317 224 387.317C224 387.317 231.741 381.583 230.473 383.908C229.205 386.233 224.255 388.431 224.255 388.431C224.255 388.431 233.179 386.631 230.008 387.899C226.837 389.167 223.82 390.038 223.82 390.038H221.354C221.354 390.038 212.927 385.81 216.098 386.444C219.27 387.079 220.961 388.136 220.961 388.136Z" fill="#DFE8FF"/>
<path d="M136.263 415.877C136.263 415.877 129.485 408.854 131.387 409.065C133.29 409.276 136.85 414.528 136.85 414.528C136.85 414.528 136.899 402.951 138.59 405.487C140.281 408.024 138.203 414.576 138.203 414.576C138.203 414.576 143.037 407.034 143.027 408.266C142.994 412.077 139.302 415.057 139.302 415.057C139.302 415.057 147.043 409.323 145.775 411.648C144.507 413.973 139.557 416.171 139.557 416.171C139.557 416.171 148.481 414.371 145.31 415.639C142.139 416.907 139.122 417.778 139.122 417.778H136.656C136.656 417.778 128.229 413.55 131.4 414.184C134.572 414.82 136.263 415.877 136.263 415.877Z" fill="#DFE8FF"/>
<path d="M363.03 417.237C363.03 417.237 356.252 410.214 358.154 410.425C360.056 410.636 363.617 415.888 363.617 415.888C363.617 415.888 363.666 404.311 365.357 406.848C367.048 409.385 364.97 415.937 364.97 415.937C364.97 415.937 369.804 408.395 369.794 409.627C369.761 413.438 366.069 416.418 366.069 416.418C366.069 416.418 373.81 410.684 372.542 413.009C371.274 415.334 366.324 417.532 366.324 417.532C366.324 417.532 375.248 415.732 372.077 417C368.906 418.268 365.889 419.139 365.889 419.139H363.423C363.423 419.139 354.996 414.911 358.167 415.545C361.339 416.18 363.03 417.237 363.03 417.237Z" fill="#DFE8FF"/>
<path d="M473.003 417.604C473.003 417.604 466.225 410.581 468.127 410.792C470.029 411.003 473.59 416.255 473.59 416.255C473.59 416.255 473.639 404.678 475.33 407.215C477.021 409.752 474.943 416.304 474.943 416.304C474.943 416.304 479.777 408.762 479.767 409.994C479.734 413.805 476.042 416.785 476.042 416.785C476.042 416.785 483.783 411.051 482.515 413.376C481.247 415.701 476.297 417.899 476.297 417.899C476.297 417.899 485.221 416.099 482.05 417.367C478.879 418.635 475.862 419.506 475.862 419.506H473.396C473.396 419.506 464.969 415.278 468.14 415.912C471.311 416.546 473.003 417.604 473.003 417.604Z" fill="#DFE8FF"/>
<path d="M677.469 395.635C677.469 395.635 667.149 384.942 670.045 385.264C672.942 385.586 678.363 393.582 678.363 393.582C678.363 393.582 678.438 375.955 681.013 379.818C683.588 383.68 680.424 393.656 680.424 393.656C680.424 393.656 687.785 382.174 687.768 384.049C687.717 389.851 682.097 394.389 682.097 394.389C682.097 394.389 693.883 385.658 691.952 389.199C690.021 392.739 682.485 396.085 682.485 396.085C682.485 396.085 696.072 393.344 691.244 395.275C686.416 397.206 681.822 398.532 681.822 398.532H678.068C678.068 398.532 665.238 392.095 670.066 393.061C674.895 394.026 677.469 395.635 677.469 395.635Z" fill="#DFE8FF"/>
<path d="M62.5381 395.635C62.5381 395.635 52.2181 384.942 55.1151 385.264C58.0121 385.586 63.4331 393.582 63.4331 393.582C63.4331 393.582 63.5081 375.955 66.0831 379.818C68.6581 383.68 65.4941 393.656 65.4941 393.656C65.4941 393.656 72.8551 382.174 72.8381 384.049C72.7871 389.851 67.1671 394.389 67.1671 394.389C67.1671 394.389 78.9531 385.658 77.0221 389.199C75.0911 392.739 67.5551 396.085 67.5551 396.085C67.5551 396.085 81.1421 393.344 76.3141 395.275C71.4861 397.206 66.8921 398.532 66.8921 398.532H63.1381C63.1381 398.532 50.3081 392.095 55.1361 393.061C59.9631 394.026 62.5381 395.635 62.5381 395.635Z" fill="#DFE8FF"/>
<path d="M113.447 380.537C113.447 380.537 102.885 362.324 105.898 360.918C108.91 359.512 115.136 373.37 115.136 373.37C115.136 373.37 113.931 347.262 116.743 349.672C119.555 352.082 122.166 370.558 122.166 370.558C122.166 370.558 127.789 350.475 129.597 354.692C131.405 358.909 128.152 371.671 128.152 371.671C128.152 371.671 136.224 356.299 137.028 361.32C137.831 366.341 133.212 374.575 133.212 374.575C133.212 374.575 143.856 363.931 144.659 368.148C145.462 372.365 141.847 376.583 141.847 376.583C141.847 376.583 155.905 368.951 152.491 373.169C149.077 377.386 144.056 382.809 144.056 382.809C144.056 382.809 157.512 377.989 155.905 380.801C154.298 383.613 148.273 386.625 148.273 386.625C148.273 386.625 159.319 384.617 158.114 386.424C156.909 388.231 154.104 390.006 154.104 390.006H104.09C104.09 390.006 90.8352 385.219 96.0572 384.817C101.279 384.415 106.098 386.624 106.098 386.624C106.098 386.624 89.8312 375.578 97.4622 374.775C105.094 373.972 111.319 383.611 111.319 383.611C111.319 383.611 100.474 368.348 104.29 370.758L113.447 380.537Z" fill="#DFE8FF"/>
<path d="M114.127 385.718C114.127 385.718 100.491 371.589 104.318 372.015C108.145 372.441 115.308 383.005 115.308 383.005C115.308 383.005 115.407 359.715 118.809 364.818C122.211 369.921 118.031 383.102 118.031 383.102C118.031 383.102 127.757 367.93 127.735 370.408C127.668 378.074 120.242 384.071 120.242 384.071C120.242 384.071 135.815 372.535 133.264 377.213C130.712 381.891 120.755 386.312 120.755 386.312C120.755 386.312 138.708 382.691 132.329 385.242C125.95 387.794 119.88 389.546 119.88 389.546H114.92C114.92 389.546 97.9683 381.041 104.347 382.317C110.725 383.592 114.127 385.718 114.127 385.718Z" fill="#34344A" stroke="#34344A" stroke-miterlimit="10"/>
<path d="M563.203 412.582C563.203 412.582 543.241 378.157 548.934 375.5C554.628 372.843 566.395 399.035 566.395 399.035C566.395 399.035 564.117 349.688 569.432 354.243C574.746 358.798 579.681 393.721 579.681 393.721C579.681 393.721 590.309 355.762 593.726 363.733C597.142 371.704 590.995 395.825 590.995 395.825C590.995 395.825 606.253 366.77 607.771 376.26C609.289 385.75 600.559 401.313 600.559 401.313C600.559 401.313 620.677 381.195 622.196 389.166C623.714 397.137 616.882 405.109 616.882 405.109C616.882 405.109 643.453 390.685 637 398.656C630.547 406.627 621.057 416.876 621.057 416.876C621.057 416.876 646.49 407.766 643.453 413.08C640.416 418.394 629.029 424.088 629.029 424.088C629.029 424.088 649.907 420.292 647.629 423.709C645.351 427.125 640.049 430.479 640.049 430.479H545.518C545.518 430.479 520.465 421.431 530.334 420.672C540.203 419.913 549.313 424.088 549.313 424.088C549.313 424.088 518.566 403.21 532.991 401.692C547.415 400.174 559.183 418.394 559.183 418.394C559.183 418.394 538.685 389.545 545.897 394.1L563.203 412.582Z" fill="#DFE8FF"/>
<path d="M564.488 422.375C564.488 422.375 538.714 395.671 545.948 396.474C553.182 397.277 566.72 417.246 566.72 417.246C566.72 417.246 566.907 373.225 573.338 382.871C579.768 392.517 571.867 417.43 571.867 417.43C571.867 417.43 590.25 388.753 590.209 393.438C590.082 407.928 576.046 419.262 576.046 419.262C576.046 419.262 605.481 397.457 600.659 406.299C595.836 415.141 577.015 423.497 577.015 423.497C577.015 423.497 610.947 416.652 598.89 421.475C586.833 426.298 575.36 429.609 575.36 429.609H565.985C565.985 429.609 533.943 413.533 546 415.944C558.058 418.356 564.488 422.375 564.488 422.375Z" fill="#34344A" stroke="#34344A" stroke-miterlimit="10"/>
<path d="M147.847 381.569C147.847 381.569 149.889 379.723 151.64 379.723C153.391 379.723 158.74 382.294 158.74 382.294C158.74 382.294 160.88 385.59 161.074 385.788C161.269 385.986 163.894 387.107 164.089 387.568C164.284 388.03 164.673 389.546 164.673 389.546H148.334L145.319 381.635L147.847 381.569Z" fill="white" stroke="#34344A" stroke-miterlimit="10"/>
<path d="M151.64 379.723L151.543 381.279C151.543 381.279 155.725 383.71 155.628 384.586C155.531 385.461 154.655 387.504 154.655 387.504L156.795 389.741H145.416L146.291 383.03C146.291 383.03 148.722 379.528 151.64 379.723Z" fill="#34344A"/>
<path d="M126.548 380.598C126.548 380.598 134.718 368.344 136.565 368.149C138.413 367.955 142.303 369.511 143.762 372.039C145.221 374.568 146.582 379.528 146.68 379.82C146.777 380.112 147.166 380.306 149.403 383.905C151.64 387.503 151.543 389.546 151.543 389.546H119.934C119.934 389.546 120.615 386.336 121.782 384.489C122.949 382.642 125.672 381.96 125.672 381.96L126.548 380.598Z" fill="white" stroke="#34344A" stroke-miterlimit="10"/>
<path d="M139.094 389.351C139.094 389.351 138.219 387.211 138.121 386.92C138.024 386.628 138.024 383.808 137.732 382.641C137.44 381.474 135.009 377.875 135.009 377.875L136.76 372.818L135.885 372.137L137.344 368.538L136.527 368.16C134.612 368.504 126.548 380.598 126.548 380.598L125.673 381.96C125.673 381.96 122.95 382.641 121.783 384.489C120.785 386.069 120.144 388.639 119.979 389.352L139.094 389.351Z" fill="#34344A"/>
<path d="M462.839 384.617C462.839 384.617 464.12 383.46 465.217 383.46C466.315 383.46 469.669 385.072 469.669 385.072C469.669 385.072 471.011 387.139 471.133 387.263C471.255 387.387 472.902 388.09 473.023 388.379C473.145 388.668 473.389 389.619 473.389 389.619H463.144L461.254 384.659L462.839 384.617Z" fill="white" stroke="#34344A" stroke-miterlimit="10"/>
<path d="M465.218 383.459L465.157 384.435C465.157 384.435 467.779 385.96 467.718 386.508C467.657 387.056 467.108 388.337 467.108 388.337L468.45 389.74H461.315L461.864 385.532C461.864 385.532 463.388 383.337 465.218 383.459Z" fill="#34344A"/>
<path d="M449.485 384.008C449.485 384.008 454.607 376.324 455.766 376.203C456.925 376.081 459.364 377.057 460.279 378.642C461.194 380.227 462.047 383.337 462.108 383.52C462.169 383.703 462.413 383.825 463.815 386.081C465.218 388.337 465.157 389.618 465.157 389.618H445.338C445.338 389.618 445.765 387.606 446.497 386.447C447.229 385.288 448.936 384.861 448.936 384.861L449.485 384.008Z" fill="white" stroke="#34344A" stroke-miterlimit="10"/>
<path d="M457.351 389.496C457.351 389.496 456.802 388.154 456.741 387.971C456.68 387.788 456.68 386.02 456.497 385.288C456.314 384.556 454.789 382.3 454.789 382.3L455.887 379.129L455.338 378.702L456.253 376.446L455.741 376.209C454.54 376.425 449.484 384.008 449.484 384.008L448.935 384.862C448.935 384.862 447.228 385.289 446.496 386.448C445.87 387.439 445.468 389.05 445.365 389.497H457.351V389.496Z" fill="#34344A"/>
<path d="M628.223 414.532C628.223 414.532 632.083 411.043 635.392 411.043C638.701 411.043 648.811 415.903 648.811 415.903C648.811 415.903 652.855 422.133 653.223 422.507C653.591 422.881 658.554 424.999 658.922 425.871C659.29 426.743 660.025 429.609 660.025 429.609H629.142L623.443 414.656L628.223 414.532Z" fill="white" stroke="#34344A" stroke-miterlimit="10"/>
<path d="M635.392 411.043L635.208 413.984C635.208 413.984 643.113 418.58 642.929 420.234C642.745 421.888 641.091 425.749 641.091 425.749L645.135 429.977H623.627L625.281 417.293C625.281 417.293 629.877 410.675 635.392 411.043Z" fill="#34344A"/>
<path d="M587.965 412.697C587.965 412.697 603.406 389.535 606.899 389.167C610.392 388.799 617.745 391.741 620.502 396.52C623.259 401.299 625.833 410.675 626.017 411.226C626.201 411.778 626.936 412.145 631.164 418.947C635.392 425.749 635.208 429.609 635.208 429.609H575.465C575.465 429.609 576.752 423.543 578.958 420.05C581.164 416.557 586.311 415.27 586.311 415.27L587.965 412.697Z" fill="white" stroke="#34344A" stroke-miterlimit="10"/>
<path d="M611.678 429.241C611.678 429.241 610.024 425.197 609.84 424.645C609.656 424.093 609.656 418.762 609.105 416.557C608.554 414.351 603.958 407.549 603.958 407.549L607.267 397.99L605.613 396.703L608.37 389.901L606.826 389.186C603.206 389.836 587.965 412.696 587.965 412.696L586.311 415.27C586.311 415.27 581.164 416.557 578.958 420.05C577.072 423.037 575.861 427.893 575.548 429.241H611.678Z" fill="#34344A"/>
</svg>
