<svg width="256" height="256" viewBox="0 0 256 256" fill="none" xmlns="http://www.w3.org/2000/svg">
<path d="M127.856 254.306C58.132 254.306 1.40649 197.581 1.40649 127.856C1.40649 58.132 58.132 1.40649 127.856 1.40649C197.581 1.40649 254.306 58.132 254.306 127.856C254.306 197.581 197.581 254.306 127.856 254.306ZM127.856 12.6465C64.3308 12.6465 12.6465 64.3308 12.6465 127.856C12.6465 191.382 64.3308 243.066 127.856 243.066C191.382 243.066 243.066 191.382 243.066 127.856C243.066 64.3308 191.382 12.6465 127.856 12.6465Z" fill="#1E3A8A"/>
<path d="M86.6732 111.384C95.7736 111.384 103.151 104.007 103.151 94.9065C103.151 85.8061 95.7736 78.4287 86.6732 78.4287C77.5727 78.4287 70.1953 85.8061 70.1953 94.9065C70.1953 104.007 77.5727 111.384 86.6732 111.384Z" fill="#1E3A8A"/>
<path d="M169.062 111.384C178.163 111.384 185.54 104.007 185.54 94.9065C185.54 85.8061 178.163 78.4287 169.062 78.4287C159.962 78.4287 152.584 85.8061 152.584 94.9065C152.584 104.007 159.962 111.384 169.062 111.384Z" fill="#1E3A8A"/>
<path d="M204.235 185.433C202.985 185.433 201.726 185.02 200.681 184.166C180.179 167.416 154.316 158.19 127.857 158.19C101.395 158.19 75.5344 167.416 55.0326 184.166C52.6329 186.133 49.0895 185.773 47.1253 183.371C45.1611 180.968 45.5179 177.428 47.9205 175.464C70.423 157.075 98.8124 146.95 127.857 146.95C156.901 146.95 185.287 157.078 207.793 175.461C210.195 177.425 210.552 180.965 208.588 183.368C207.478 184.728 205.862 185.433 204.235 185.433Z" fill="#1E3A8A"/>
</svg>
